
<svg xmlns="http://www.w3.org/2000/svg" width="40" height="40" viewBox="0 0 40 40"><defs><style>.a,.d{fill:none;}.a{stroke:#fff;stroke-width:3px;}.b{fill:#fff;}.c{stroke:none;}</style></defs><g transform="translate(-171 -147)"><g class="a" transform="translate(171 147)"><circle class="c" cx="20" cy="20" r="20"/><circle class="d" cx="20" cy="20" r="18.5"/></g><g transform="translate(179.667 155.667)"><g transform="translate(0 0)"><path class="b" d="M22.714,8.018,15.325.629a2.123,2.123,0,0,0-3,0L.618,12.341a2.123,2.123,0,0,0,0,3l.911.911h0l6.123,6.123H6.805a.486.486,0,0,0,0,.972h9.722a.486.486,0,0,0,0-.972H11.356L22.714,11.013A2.121,2.121,0,0,0,22.714,8.018Zm-.687,2.308L10.315,22.037a1.138,1.138,0,0,1-.809.334h0a1.137,1.137,0,0,1-.808-.334L2.561,15.9,13.808,4.657a.486.486,0,1,0-.687-.687L1.874,15.216l-.568-.568a1.151,1.151,0,0,1,0-1.621L13.017,1.317a1.151,1.151,0,0,1,1.621,0l2.63,2.63L6.02,15.194a.486.486,0,0,0,.687.687L17.955,4.634l4.071,4.071A1.147,1.147,0,0,1,22.027,10.326Z" transform="translate(0 -0.011)"/><path class="b" d="M165.313,305.083a.486.486,0,0,0-.687,0l-3.825,3.825a.486.486,0,0,0,.687.688l3.825-3.825A.486.486,0,0,0,165.313,305.083Z" transform="translate(-153.337 -291.044)"/><path class="b" d="M192.537,384.759l-1.569,1.569a.486.486,0,0,0,.687.688l1.569-1.569a.486.486,0,1,0-.687-.687Z" transform="translate(-182.13 -367.089)"/><path class="b" d="M252.753,353.084l-.206.206a.486.486,0,1,0,.687.687l.206-.206a.486.486,0,0,0-.687-.687Z" transform="translate(-240.902 -336.858)"/><path class="b" d="M346.5,160.811a.486.486,0,0,0-.687,0l-2.062,2.062a.486.486,0,0,0,0,.687l1.375,1.375a.486.486,0,0,0,.687,0l2.062-2.062a.486.486,0,0,0,0-.687Zm-1.031,3.093-.687-.687,1.375-1.375.687.688Z" transform="translate(-327.951 -153.347)"/><path class="b" d="M310.159,55.505a.484.484,0,0,0,.344-.142l.206-.206a.486.486,0,0,0-.688-.687l-.206.206a.486.486,0,0,0,.344.83Z" transform="translate(-295.56 -51.851)"/><path class="b" d="M99.915,355.075l-.206.206a.486.486,0,0,0,.687.688l.206-.206a.486.486,0,1,0-.687-.687Z" transform="translate(-95.029 -338.758)"/></g></g></g></svg>
